<svg xmlns="http://www.w3.org/2000/svg" width="232" height="204" viewBox="0 0 61.383 53.975"><defs><filter id="a" x="0" width="1" y="0" height="1" color-interpolation-filters="sRGB"><feGaussianBlur/></filter></defs><path d="M1.058 1.058v51.859h59.267V1.058zm4.234 1.059a3.175 3.175 0 013.175 3.175 3.175 3.175 0 01-3.175 3.175 3.175 3.175 0 01-3.175-3.175 3.175 3.175 0 013.175-3.175zm8.466 0a3.175 3.175 0 013.175 3.175 3.175 3.175 0 01-3.175 3.175 3.175 3.175 0 01-3.175-3.175 3.175 3.175 0 013.175-3.175zm8.467 0A3.175 3.175 0 0125.4 5.292a3.175 3.175 0 01-3.175 3.175 3.175 3.175 0 01-3.175-3.175 3.175 3.175 0 013.175-3.175zm8.467 0a3.175 3.175 0 013.175 3.175 3.175 3.175 0 01-3.175 3.175 3.175 3.175 0 01-3.175-3.175 3.175 3.175 0 013.175-3.175zm16.933 0A3.175 3.175 0 0150.8 5.292a3.175 3.175 0 01-3.175 3.175 3.175 3.175 0 01-3.175-3.175 3.175 3.175 0 013.175-3.175zm8.467 0a3.175 3.175 0 013.175 3.175 3.175 3.175 0 01-3.175 3.175 3.175 3.175 0 01-3.175-3.175 3.175 3.175 0 013.175-3.175zm-16.934.176a3.175 3.175 0 013.175 3.175 3.175 3.175 0 01-3.175 3.175 3.175 3.175 0 01-3.175-3.175 3.175 3.175 0 013.175-3.175zm-33.866 8.29a3.175 3.175 0 013.175 3.175 3.175 3.175 0 01-3.175 3.175 3.175 3.175 0 01-3.175-3.175 3.175 3.175 0 013.175-3.175zm8.466 0a3.175 3.175 0 013.175 3.175 3.175 3.175 0 01-3.175 3.175 3.175 3.175 0 01-3.175-3.175 3.175 3.175 0 013.175-3.175zm8.467 0a3.175 3.175 0 013.175 3.175 3.175 3.175 0 01-3.175 3.175 3.175 3.175 0 01-3.175-3.175 3.175 3.175 0 013.175-3.175zm8.467 0a3.175 3.175 0 013.175 3.175 3.175 3.175 0 01-3.175 3.175 3.175 3.175 0 01-3.175-3.175 3.175 3.175 0 013.175-3.175zm16.933 0a3.175 3.175 0 013.175 3.175 3.175 3.175 0 01-3.175 3.175 3.175 3.175 0 01-3.175-3.175 3.175 3.175 0 013.175-3.175zm8.467 0a3.175 3.175 0 013.175 3.175 3.175 3.175 0 01-3.175 3.175 3.175 3.175 0 01-3.175-3.175 3.175 3.175 0 013.175-3.175zm-16.934.177a3.175 3.175 0 013.175 3.175 3.175 3.175 0 01-3.175 3.175 3.175 3.175 0 01-3.175-3.175 3.175 3.175 0 013.175-3.175zM5.292 19.05a3.175 3.175 0 013.175 3.175A3.175 3.175 0 015.292 25.4a3.175 3.175 0 01-3.175-3.175 3.175 3.175 0 013.175-3.175zm8.466 0a3.175 3.175 0 013.175 3.175 3.175 3.175 0 01-3.175 3.175 3.175 3.175 0 01-3.175-3.175 3.175 3.175 0 013.175-3.175zm8.467 0a3.175 3.175 0 013.175 3.175 3.175 3.175 0 01-3.175 3.175 3.175 3.175 0 01-3.175-3.175 3.175 3.175 0 013.175-3.175zm8.467 0a3.175 3.175 0 013.175 3.175 3.175 3.175 0 01-3.175 3.175 3.175 3.175 0 01-3.175-3.175 3.175 3.175 0 013.175-3.175zm16.933 0a3.175 3.175 0 013.175 3.175 3.175 3.175 0 01-3.175 3.175 3.175 3.175 0 01-3.175-3.175 3.175 3.175 0 013.175-3.175zm8.467 0a3.175 3.175 0 013.175 3.175 3.175 3.175 0 01-3.175 3.175 3.175 3.175 0 01-3.175-3.175 3.175 3.175 0 013.175-3.175zm-16.934.177a3.175 3.175 0 013.175 3.175 3.175 3.175 0 01-3.175 3.175 3.175 3.175 0 01-3.175-3.175 3.175 3.175 0 013.175-3.175zm-33.866 8.29a3.175 3.175 0 013.175 3.175 3.175 3.175 0 01-3.175 3.175 3.175 3.175 0 01-3.175-3.175 3.175 3.175 0 013.175-3.175zm8.466 0a3.175 3.175 0 013.175 3.175 3.175 3.175 0 01-3.175 3.175 3.175 3.175 0 01-3.175-3.175 3.175 3.175 0 013.175-3.175zm8.467 0a3.175 3.175 0 013.175 3.175 3.175 3.175 0 01-3.175 3.175 3.175 3.175 0 01-3.175-3.175 3.175 3.175 0 013.175-3.175zm8.467 0a3.175 3.175 0 013.175 3.175 3.175 3.175 0 01-3.175 3.175 3.175 3.175 0 01-3.175-3.175 3.175 3.175 0 013.175-3.175zm16.933 0a3.175 3.175 0 013.175 3.175 3.175 3.175 0 01-3.175 3.175 3.175 3.175 0 01-3.175-3.175 3.175 3.175 0 013.175-3.175zm8.467 0a3.175 3.175 0 013.175 3.175 3.175 3.175 0 01-3.175 3.175 3.175 3.175 0 01-3.175-3.175 3.175 3.175 0 013.175-3.175zm-16.934.176a3.175 3.175 0 013.175 3.175 3.175 3.175 0 01-3.175 3.175 3.175 3.175 0 01-3.175-3.175 3.175 3.175 0 013.175-3.175zm-33.866 8.29a3.175 3.175 0 013.175 3.175 3.175 3.175 0 01-3.175 3.175 3.175 3.175 0 01-3.175-3.175 3.175 3.175 0 013.175-3.175zm8.466 0a3.175 3.175 0 013.175 3.175 3.175 3.175 0 01-3.175 3.175 3.175 3.175 0 01-3.175-3.175 3.175 3.175 0 013.175-3.175zm8.467 0a3.175 3.175 0 013.175 3.175 3.175 3.175 0 01-3.175 3.175 3.175 3.175 0 01-3.175-3.175 3.175 3.175 0 013.175-3.175zm8.467 0a3.175 3.175 0 013.175 3.175 3.175 3.175 0 01-3.175 3.175 3.175 3.175 0 01-3.175-3.175 3.175 3.175 0 013.175-3.175zm16.933 0a3.175 3.175 0 013.175 3.175 3.175 3.175 0 01-3.175 3.175 3.175 3.175 0 01-3.175-3.175 3.175 3.175 0 013.175-3.175zm8.467 0a3.175 3.175 0 013.175 3.175 3.175 3.175 0 01-3.175 3.175 3.175 3.175 0 01-3.175-3.175 3.175 3.175 0 013.175-3.175zm-16.934.177a3.175 3.175 0 013.175 3.175 3.175 3.175 0 01-3.175 3.175 3.175 3.175 0 01-3.175-3.175 3.175 3.175 0 013.175-3.175zM5.292 44.45a3.175 3.175 0 013.175 3.175A3.175 3.175 0 015.292 50.8a3.175 3.175 0 01-3.175-3.175 3.175 3.175 0 013.175-3.175zm8.466 0a3.175 3.175 0 013.175 3.175 3.175 3.175 0 01-3.175 3.175 3.175 3.175 0 01-3.175-3.175 3.175 3.175 0 013.175-3.175zm8.467 0a3.175 3.175 0 013.175 3.175 3.175 3.175 0 01-3.175 3.175 3.175 3.175 0 01-3.175-3.175 3.175 3.175 0 013.175-3.175zm8.467 0a3.175 3.175 0 013.175 3.175 3.175 3.175 0 01-3.175 3.175 3.175 3.175 0 01-3.175-3.175 3.175 3.175 0 013.175-3.175zm16.933 0a3.175 3.175 0 013.175 3.175 3.175 3.175 0 01-3.175 3.175 3.175 3.175 0 01-3.175-3.175 3.175 3.175 0 013.175-3.175zm8.467 0a3.175 3.175 0 013.175 3.175 3.175 3.175 0 01-3.175 3.175 3.175 3.175 0 01-3.175-3.175 3.175 3.175 0 013.175-3.175zm-16.934.177a3.175 3.175 0 013.175 3.175 3.175 3.175 0 01-3.175 3.175 3.175 3.175 0 01-3.175-3.175 3.175 3.175 0 013.175-3.175z" fill="#e9c6af"/><path transform="rotate(90 0 1.058)" fill="#8aa79c" fill-opacity=".971" filter="url(#a)" d="M50.8-60.325h2.117V1.058H50.8z"/><path fill="#dbe3db" d="M0 1.058h1.058v52.917H0zM61.383 1.058v52.917h-1.058V1.058z"/></svg>